<svg xmlns="http://www.w3.org/2000/svg" viewBox="0 0 23.09 23.09"><defs><style>.cls-1{fill:#fff;}</style></defs><g id="Layer_2" data-name="Layer 2"><g id="Layer_1-2" data-name="Layer 1"><path class="cls-1" d="M11.54,22.5a11,11,0,1,1,11-11,11,11,0,0,1-11,11m0-22.5A11.55,11.55,0,1,0,23.09,11.54,11.56,11.56,0,0,0,11.54,0"/><path class="cls-1" d="M18.71,14.48l-1,1.13-1.06-1.15,1.18-.7Zm-2.4,3.72-1.21-.31-.73-1.63,2,.72,1.22-.65.23,1Zm-2.83-.72-1.1-1.63-.11-2.6L14,14.59l-.33,1.26.85,1.89Zm-.3,2.06-1.58-.9L11.72,17l.42-.65,1,1.53,1.21.32ZM9.64,17l0-1,.64-.25,1.35-2.57h.1l.12,2.72-.56.86Zm1.47,1.66-.84.37L9.6,18.2l0-.75,1.59-.22Zm-2-1.6-.17,0-1.38.69L5.89,17,6,16.48,6.35,16l1.23.76,1.6-.61Zm-4-2.35-.08-.05-.35-1.51H5.4l.82.92.86.22-.85,1.1Zm4.76-1.54-1.49,1-1.94-.51-.43-.48Zm1.21,0L10,15.32l-2.34.9-1-.61.94-1.23.92.25,2.28-1.5Zm6.21,2.77-1,.55-2.1-.77.24-.95,1.74-.07Zm.56-2.74-1.68,1-1.88.08-1.41-1.11ZM13.56,9.09l.31,0,0-.31.46.47.05.34.28.15.24.43-.15.18-.12-.16-.36.16-.15.28-.33-.29.33-.24s-.34-.37-.37-.38l-.62-.13Zm-1.08,3.56-.31-.25L12,11l.92.42.95-.08.46.41.72-.24,1,0,.13-.43-.38-.44.14-.57-.27-.49V9.2l-.63-.27,0-.52-.55-.48-.52.12-.3-.55-.7.12-.37-.48-.59.19-.25-.47-.56.26L10.67,7l-.17.48L10,7.17l-.39.59-.67,0-.7.47.16.36-.59.19-.2.39.17.46-.56,0,.17.62-.45.41.22.33-.22.64.72-.07.42.19.75-.43.77.17,1.42-.6-.21,1.49-.37.27-8.59,0c0,.13,0,.26,0,.39h0s0,.06,0,.08H3.28L2.21,14.36v0l0,.08h0l.11.33h0l0,.09h0l1.52-1.8h.3l.35,1.47-2.07.59h0l0,.07h0l.12.28h0l0,.08h0l1.78-.51L3.14,16.49a.25.25,0,0,1,0,.07h0l.17.27h0l.05.07h0l1.65-1.73.88.55-.42.54-.07.43-1.73.64h0l.06.08h0l.2.25H4l.05.07H4l1.32-.5-.26,1.59h0a.46.46,0,0,1,.07.07h0l.27.23h0l.08.06h0l.28-1.69,1.58.66.06.73-1.38.7.08.05h0l.3.2h0l.09.05h0l1-.48.09,1h0l.09,0h0l.31.13H8l.08,0-.23-2.52,1.27-.63h0l0,.85.7.82-1,.46-.41,1.12h0l.08,0h0l.29.09h0l.09,0h0L9.16,20l1-.43.36.41-.78,1.14h0l.09,0h0l.33.05h0l.1,0h0l.57-.84.79.92h.12l.5,0h0L10.6,19.37l.73-.32,1.58.9-.45,1.31A4.52,4.52,0,0,0,13,21.2h0l.33-1,.77.75h0l.53-.16h0l-1-1,.79-.86,1.09,1.53.45-.21h0l-1.21-1.69.21-.23,1.26.32.6,1.1h0a3.62,3.62,0,0,0,.41-.27h0l-.53-.95,1.22-.72.21,1h0c.14-.13.28-.26.41-.4h0l-.46-2,1.64.58h0c.09-.14.18-.28.26-.42l-1.81-.65.95-1.07,1.24,1,.21-.46h0l-1-.81,1.38-.35h0c.05-.18.09-.36.13-.54h0l-2,.51-.82-.68.55-.32h2.35c0-.16.05-.33.07-.49Z"/><path class="cls-1" d="M7.48,6.48l-2-2.57c-.2.16-.39.32-.57.49L7.6,7.35a5.73,5.73,0,0,1,.77-.61L8,6.12a5.6,5.6,0,0,0-.49.36"/><path class="cls-1" d="M4.8,8.44l-.14.33L3.37,8c.48.14,1,.29,1.43.45M2.42,8.12a24.34,24.34,0,0,0,3.55,2,4.13,4.13,0,0,1,.15-.5L5.3,9.16a4.19,4.19,0,0,1,.2-.49L6.38,9c.07-.14.15-.28.23-.42A23.39,23.39,0,0,0,2.83,7.18a9.88,9.88,0,0,0-.41.94"/><path class="cls-1" d="M4.72,4.59c-.18.18-.35.36-.52.55a15.29,15.29,0,0,0,1,1.7L3.75,5.7c-.14.18-.27.37-.4.56L6.67,8.47c.08-.11.15-.23.24-.34l-.78-.59L5.92,7.2a11.36,11.36,0,0,1,1.29.55l.33-.34a10.81,10.81,0,0,0-1.93-1,13.37,13.37,0,0,1-.89-1.87"/><path class="cls-1" d="M15.18,3.29c.19.08.38.18.57.28-.13.27-.27.55-.41.81l-.52-.23.36-.86m.52,1.57.75-1.25c0-.19-.1-.4-.16-.59a10.85,10.85,0,0,0-1.51-.68c-.42,1.25-.87,2.54-1.29,3.78l.41.16c.21-.49.42-1,.63-1.46l.15.06a14.46,14.46,0,0,1-.37,1.61l.37.22a14.9,14.9,0,0,0,.48-1.61,5.22,5.22,0,0,1,.54-.24"/><path class="cls-1" d="M5.06,11.13l-2.5-.22c0-.3.06-.59.1-.87l2.47.46c0,.21-.06.42-.07.63M2.49,9.23c-.17.12-.33.24-.5.38a11.17,11.17,0,0,0-.19,1.54c.14.19.27.38.41.56H5.36c.13-.11.29-.24.43-.34a5.51,5.51,0,0,1,.1-.91,4.35,4.35,0,0,1-.34-.41L2.49,9.23"/><path class="cls-1" d="M21.13,9.73a6.4,6.4,0,0,0-.51-.4l-1.48.38c-.1.17-.21.33-.32.49s.08.56.1.85l-.88.08L18,10.57l.31-.06a4.86,4.86,0,0,0-.1-.55l-.62.16c-.11.14-.23.28-.35.41a5.68,5.68,0,0,1,.09.84c.14.1.29.22.43.34h1.52c.14-.15.28-.3.41-.46q0-.5-.09-1l.87-.16c0,.26.07.51.09.78l-.3,0c0,.25,0,.51,0,.77h.62c.14-.17.28-.38.41-.57a9.36,9.36,0,0,0-.16-1.41"/><path class="cls-1" d="M20.26,9.21,21,9a9.12,9.12,0,0,0-.81-2l-.65.34c.1.2.2.39.29.6L16.84,9.27c.06.13.11.27.16.41l3.05-1.14c.07.22.15.44.21.67"/><path class="cls-1" d="M15.57,6.44l1.53-2,.54.46L16,6.78c-.13-.12-.25-.23-.39-.34M18.32,5.1c0-.19,0-.39,0-.58a10.31,10.31,0,0,0-.95-.8l-.58.11C16.2,4.7,15.6,5.59,15,6.46c0,.16,0,.32,0,.48a6.44,6.44,0,0,1,.56.48l.48-.11L18.32,5.1"/><path class="cls-1" d="M12.39,5.1h-.06l-.43,0c0-.83.08-1.67.13-2.51.23,0,.45,0,.68.06-.1.83-.21,1.67-.32,2.5m-.84-3.31h-.16c0,1.32,0,2.68.07,4h.09a5.26,5.26,0,0,1,.89.07c.1-.12.22-.26.34-.38l.6-3.08c-.1-.16-.23-.33-.35-.49a10.31,10.31,0,0,0-1.48-.11"/><path class="cls-1" d="M18.66,6c.15.19.29.39.42.59L17,8c-.09-.14-.2-.29-.3-.43l2-1.57m1,1,.13-.6a9.82,9.82,0,0,0-.75-1c-.19,0-.41,0-.6,0L16.16,7.45c0,.16-.08.32-.13.47a5.47,5.47,0,0,1,.44.63,4.19,4.19,0,0,1,.5,0L19.7,7"/><path class="cls-1" d="M10.36,1.87c.08.68.19,1.51.27,2.19A18.82,18.82,0,0,0,9.62,2c-.24,0-.46.1-.69.16L10,6l.39-.1c-.14-.68-.29-1.42-.42-2.1a15.57,15.57,0,0,1,.85,2l.43,0c-.07-1.31-.14-2.67-.21-4q-.33,0-.66.06"/><path class="cls-1" d="M8.32,4.92C8.15,4.45,8,4,7.84,3.5c.27.42.53.85.79,1.29l-.31.13m-1.27-2A26,26,0,0,0,8.48,6.67c.13-.08.26-.16.4-.23-.11-.27-.22-.55-.32-.82L9,5.42l.42.76L9.86,6a26.62,26.62,0,0,0-2-3.53q-.43.18-.84.39"/></g></g></svg>