<?xml version="1.0" encoding="UTF-8"?>
<svg id="Layer_2" data-name="Layer 2" xmlns="http://www.w3.org/2000/svg" viewBox="0 0 1064.94 555.47">
  <defs>
    <style>
      .cls-1 {
        fill: #fff;
      }
    </style>
  </defs>
  <g id="Layer_1-2" data-name="Layer 1">
    <g>
      <path class="cls-1" d="M29.2,228.8V29.58L58.79,0h64.78l29.58,29.58v199.22l-29.58,29.58H58.79l-29.58-29.58ZM103.72,227.68l12.36-12.73V43.44l-12.36-12.73h-25.09l-12.36,12.73v171.5l12.36,12.73h25.09Z"/>
      <path class="cls-1" d="M212.69,0h53.17l42.31,258.38h-36.32l-9.74-67.03h-47.56l-9.36,67.03h-34.83L212.69,0ZM219.06,159.9h38.57l-19.1-135.93-19.47,135.93Z"/>
      <path class="cls-1" d="M392.05,143.79l-25.84,61.41v53.17h-37.07V0h37.07v144.54L421.26,0h37.07l-42.31,107.1,44.94,151.28h-37.82l-31.08-114.59Z"/>
      <path class="cls-1" d="M483.79,0h37.07v226.18h57.29v32.2h-94.37V0Z"/>
      <path class="cls-1" d="M629.08,0h53.17l42.31,258.38h-36.32l-9.74-67.03h-47.56l-9.36,67.03h-34.83L629.08,0ZM635.44,159.9h38.57l-19.1-135.93-19.47,135.93Z"/>
      <path class="cls-1" d="M745.53,0h31.08l61.04,172.25V0h32.95v258.38h-31.08l-61.04-174.13v174.13h-32.95V0Z"/>
      <path class="cls-1" d="M906.55,0h93.24l29.21,29.58v199.22l-29.21,29.58h-93.24V0ZM979.57,227.68l12.36-12.73V43.44l-12.36-12.73h-35.95v196.97h35.95Z"/>
      <path class="cls-1" d="M0,297.09h95.11l29.58,29.58v89.5l-25.09,25.09,26.96,114.21h-37.45l-25.09-109.72h-26.96v109.72H0v-258.38ZM74.89,416.17l12.73-12.73v-64.03l-12.73-12.73h-37.82v89.5h37.82Z"/>
      <path class="cls-1" d="M153.15,525.89v-199.22l29.58-29.58h64.78l29.58,29.58v199.22l-29.58,29.58h-64.78l-29.58-29.58ZM227.67,524.77l12.36-12.73v-171.5l-12.36-12.73h-25.09l-12.36,12.73v171.5l12.36,12.73h25.09Z"/>
      <path class="cls-1" d="M309.3,525.89v-199.22l29.58-29.58h64.78l29.58,29.58v199.22l-29.58,29.58h-64.78l-29.58-29.58ZM383.82,524.77l12.36-12.73v-171.5l-12.36-12.73h-25.09l-12.36,12.73v171.5l12.36,12.73h25.09Z"/>
      <path class="cls-1" d="M496.9,330.04h-44.56v-32.95h125.82v32.95h-44.19v225.43h-37.07v-225.43Z"/>
      <path class="cls-1" d="M592.76,525.89v-43.06h37.07v29.21l12.36,12.73h22.47l12.73-12.73v-61.04l-9.74-9.74h-48.68l-25.09-25.09v-89.5l29.21-29.58h61.04l29.58,29.58v43.06h-37.07v-29.21l-12.73-12.73h-20.6l-12.36,12.73v58.42l9.74,9.74h48.31l25.46,25.46v91.74l-29.58,29.58h-62.91l-29.21-29.58Z"/>
      <path class="cls-1" d="M796.83,525.89v-43.06h37.07v29.21l12.36,12.73h22.47l12.73-12.73v-61.04l-9.74-9.74h-48.68l-25.09-25.09v-89.5l29.21-29.58h61.04l29.58,29.58v43.06h-37.07v-29.21l-12.73-12.73h-20.6l-12.36,12.73v58.42l9.74,9.74h48.31l25.46,25.46v91.74l-29.58,29.58h-62.91l-29.21-29.58Z"/>
      <path class="cls-1" d="M945.86,525.89v-199.22l29.58-29.58h59.92l29.58,29.58v49.43h-37.07v-35.57l-12.73-12.73h-19.85l-12.36,12.73v172.25l12.36,12.36h19.85l12.73-12.36v-37.07h37.07v50.18l-29.58,29.58h-59.92l-29.58-29.58Z"/>
    </g>
  </g>
</svg>