<?xml version="1.0" encoding="UTF-8"?>
<svg id="Layer_2" data-name="Layer 2" xmlns="http://www.w3.org/2000/svg" viewBox="0 0 867.14 570.81">
  <defs>
    <style>
      .cls-1 {
        fill: #fff;
      }
    </style>
  </defs>
  <g id="Layer_1-2" data-name="Layer 1">
    <g>
      <g>
        <path class="cls-1" d="M22.44,274.51V107.23l23.28-33.5,50.98-18.97,23.28,16.18v167.28l-23.28,33.5-50.98,18.98-23.28-16.18ZM81.07,251.74l9.72-14.31V93.42l-9.72-7.07-19.74,7.35-9.72,14.31v144.01l9.72,7.07,19.74-7.35Z"/>
        <path class="cls-1" d="M168.33,33.26l43.42-10.37,34.55,208.71-29.66,7.08-7.95-54.38-38.83,9.27-7.65,58.11-28.44,6.79,34.55-225.21ZM173.53,166.28l31.5-7.52-15.59-110.42-15.9,117.94Z"/>
        <path class="cls-1" d="M316.38,126.94l-21.56,53.98v44.65l-30.93,3.47V12.08l30.93-3.47v121.37L340.75,3.47l30.93-3.47-35.31,93.88,37.5,122.83-31.56,3.54-25.94-93.31Z"/>
        <path class="cls-1" d="M393.26.67l31.12-.51v189.92l48.1-.79v27.04l-79.22,1.29V.67Z"/>
        <path class="cls-1" d="M515.12,3.46l44.4,4.68,35.33,220.68-30.33-3.2-8.13-57.14-39.71-4.18-7.81,55.46-29.08-3.06L515.12,3.46ZM520.44,138.28l32.21,3.4-15.95-115.82-16.26,112.43Z"/>
        <path class="cls-1" d="M612.28,15.14l25.41,5.96,49.9,156.34V32.8l26.94,6.32v216.96l-25.41-5.96-49.9-157.91v146.21l-26.94-6.32V15.14Z"/>
        <path class="cls-1" d="M743.44,48.05l73.24,27.67,22.94,33.5v167.28l-22.94,16.18-73.24-27.67V48.05ZM800.8,260.89l9.71-7.03V109.86l-9.71-14.36-28.24-10.67v165.39l28.24,10.67Z"/>
      </g>
      <g>
        <path class="cls-1" d="M0,353.85l74.09-29.8,23.04,15.57v75.15l-19.54,28.93,21,87.45-29.17,11.74-19.54-84.27-21,8.45v92.13l-28.88,11.62v-216.96ZM58.34,430.37l9.92-14.68v-53.77l-9.92-6.7-29.46,11.85v75.15l29.46-11.85Z"/>
        <path class="cls-1" d="M120.03,499.53v-167.28l24.04-31.09,52.65-13.68,24.04,18.59v167.28l-24.04,31.09-52.65,13.68-24.04-18.59ZM180.59,482.85l10.04-13.3v-144.01l-10.04-8.08-20.39,5.3-10.04,13.3v144.01l10.04,8.08,20.39-5.3Z"/>
        <path class="cls-1" d="M247.48,468.23v-167.28l24.64-27.96,53.97-6.82,24.64,21.72v167.28l-24.64,27.96-53.97,6.82-24.64-21.72ZM309.56,459.44l10.29-11.99v-144.01l-10.29-9.39-20.9,2.64-10.3,11.99v144.01l10.3,9.39,20.9-2.64Z"/>
        <path class="cls-1" d="M404.23,289.43l-37.41.61v-27.67l105.63-1.73v27.67l-37.1.6v189.29l-31.12.51v-189.29Z"/>
        <path class="cls-1" d="M484.73,453.82v-36.16l30.96,3.21v24.53l10.32,11.76,18.77,1.94,10.63-9.59v-51.25l-8.13-9.01-40.66-4.21-20.96-23.24v-75.15l24.39-22.32,50.98,5.28,24.71,27.4v36.16l-30.96-3.21v-24.53l-10.63-11.79-17.2-1.78-10.32,9.62v49.05l8.13,9.02,40.35,4.18,21.27,23.58v77.04l-24.71,22.28-52.54-5.44-24.39-27.37Z"/>
        <path class="cls-1" d="M654.5,477.25v-36.16l29.99,8.33v24.53l10,13.47,18.17,5.05,10.3-7.83v-51.25l-7.88-10.37-39.38-10.94-20.3-26.71v-75.15l23.63-18.27,49.38,13.72,23.93,31.49v36.16l-29.99-8.34v-24.52l-10.3-13.56-16.66-4.63-10,7.91v49.05l7.88,10.36,39.08,10.86,20.6,27.11v77.04l-23.93,18.19-50.89-14.15-23.63-31.41Z"/>
        <path class="cls-1" d="M774.7,512.29v-167.28l22.96-15.38,46.51,19.17,22.97,34.31v41.5l-28.78-11.86v-29.87l-9.88-14.77-15.4-6.35-9.6,6.74v144.64l9.6,14.33,15.4,6.35,9.88-6.3v-31.13l28.78,11.86v42.14l-22.97,15.38-46.51-19.17-22.96-34.3Z"/>
      </g>
    </g>
  </g>
</svg>